<svg width="109" height="109" viewBox="0 0 109 109" fill="none" xmlns="http://www.w3.org/2000/svg">
<circle cx="54.5" cy="54.5" r="54.5" fill="#AAAAAA"/>
<path d="M55 39.9287C53.202 39.9287 51.4444 40.4628 49.9494 41.4635C48.4544 42.4642 47.2892 43.8866 46.6011 45.5507C45.913 47.2149 45.733 49.046 46.0838 50.8126C46.4345 52.5793 47.3004 54.202 48.5718 55.4757C49.8431 56.7494 51.463 57.6168 53.2265 57.9682C54.9899 58.3196 56.8178 58.1392 58.4789 57.4499C60.1401 56.7606 61.5599 55.5933 62.5588 54.0956C63.5577 52.5979 64.0909 50.8372 64.0909 49.0359C64.0909 46.6205 63.1331 44.3041 61.4282 42.5961C59.7234 40.8882 57.4111 39.9287 55 39.9287ZM55 54.5003C53.9212 54.5003 52.8666 54.1798 51.9696 53.5793C51.0726 52.9789 50.3735 52.1255 49.9607 51.127C49.5478 50.1285 49.4398 49.0299 49.6503 47.9699C49.8607 46.9099 50.3802 45.9362 51.1431 45.172C51.9059 44.4078 52.8778 43.8874 53.9359 43.6766C54.9939 43.4657 56.0907 43.5739 57.0874 43.9875C58.0841 44.4011 58.9359 45.1015 59.5353 46.0001C60.1346 46.8987 60.4545 47.9552 60.4545 49.0359C60.4545 50.4851 59.8799 51.875 58.8569 52.8998C57.834 53.9245 56.4466 54.5003 55 54.5003ZM55 29C49.6975 29.006 44.6139 31.1189 40.8645 34.875C37.1151 38.6312 35.006 43.7239 35 49.0359C35 56.1851 38.2977 63.7623 44.5455 70.9502C47.3528 74.1982 50.5124 77.123 53.9659 79.6704C54.2716 79.8849 54.6358 80 55.0091 80C55.3823 80 55.7466 79.8849 56.0523 79.6704C59.4994 77.1219 62.6529 74.1972 65.4545 70.9502C71.6932 63.7623 75 56.1851 75 49.0359C74.994 43.7239 72.8849 38.6312 69.1355 34.875C65.3861 31.1189 60.3025 29.006 55 29ZM55 75.9023C51.2432 72.9424 38.6364 62.0706 38.6364 49.0359C38.6364 44.6882 40.3604 40.5186 43.4292 37.4443C46.4979 34.37 50.6601 32.6429 55 32.6429C59.3399 32.6429 63.5021 34.37 66.5708 37.4443C69.6396 40.5186 71.3636 44.6882 71.3636 49.0359C71.3636 62.0661 58.7568 72.9424 55 75.9023Z" fill="black"/>
</svg>
