<svg width="42" height="39" viewBox="0 0 42 39" fill="none" xmlns="http://www.w3.org/2000/svg">
<path d="M38.7692 0H3.23082C2.37397 0 1.55221 0.34241 0.946325 0.951903C0.340439 1.5614 5.62543e-05 2.38805 5.62543e-05 3.25V35.75C-0.00359421 36.3695 0.170492 36.9768 0.501431 37.4993C0.832371 38.0217 1.30611 38.437 1.86582 38.6953C2.29353 38.8951 2.75926 38.999 3.23082 39C3.98925 38.9982 4.72252 38.7262 5.30053 38.2322C5.31016 38.2259 5.31898 38.2184 5.32678 38.2098L11.8125 32.5H38.7692C39.6261 32.5 40.4478 32.1576 41.0537 31.5481C41.6596 30.9386 42 30.112 42 29.25V3.25C42 2.38805 41.6596 1.5614 41.0537 0.951903C40.4478 0.34241 39.6261 0 38.7692 0ZM38.7692 29.25H11.8125C11.0517 29.2496 10.3152 29.5194 9.73273 30.0117L9.7085 30.0341L3.23082 35.75V3.25H38.7692V29.25ZM12.9231 13C12.9231 12.569 13.0933 12.1557 13.3963 11.851C13.6992 11.5462 14.1101 11.375 14.5385 11.375H27.4616C27.89 11.375 28.3009 11.5462 28.6038 11.851C28.9067 12.1557 29.0769 12.569 29.0769 13C29.0769 13.431 28.9067 13.8443 28.6038 14.149C28.3009 14.4538 27.89 14.625 27.4616 14.625H14.5385C14.1101 14.625 13.6992 14.4538 13.3963 14.149C13.0933 13.8443 12.9231 13.431 12.9231 13ZM12.9231 19.5C12.9231 19.069 13.0933 18.6557 13.3963 18.351C13.6992 18.0462 14.1101 17.875 14.5385 17.875H27.4616C27.89 17.875 28.3009 18.0462 28.6038 18.351C28.9067 18.6557 29.0769 19.069 29.0769 19.5C29.0769 19.931 28.9067 20.3443 28.6038 20.649C28.3009 20.9538 27.89 21.125 27.4616 21.125H14.5385C14.1101 21.125 13.6992 20.9538 13.3963 20.649C13.0933 20.3443 12.9231 19.931 12.9231 19.5Z" fill="black"/>
</svg>
