<svg width="42" height="42" viewBox="0 0 42 42" fill="none" xmlns="http://www.w3.org/2000/svg">
<path d="M39.978 28.2364L30.0848 23.8033L30.0575 23.7907C29.5439 23.571 28.9837 23.4829 28.4274 23.5342C27.8712 23.5855 27.3365 23.7748 26.8718 24.0847C26.8171 24.1208 26.7645 24.1601 26.7143 24.2023L21.6029 28.5599C18.3647 26.9869 15.0214 23.6689 13.4485 20.4727L17.8123 15.2835C17.8543 15.231 17.8942 15.1785 17.932 15.1218C18.2353 14.6584 18.4194 14.1271 18.4677 13.5753C18.5161 13.0235 18.4273 12.4684 18.2092 11.9592V11.934L13.7635 2.02399C13.4753 1.35884 12.9796 0.804754 12.3506 0.44444C11.7216 0.0841258 10.9929 -0.0630876 10.2733 0.0247753C7.42771 0.399223 4.81573 1.79671 2.9252 3.95621C1.03467 6.11572 -0.00512599 8.88957 1.90023e-05 11.7597C1.90023e-05 28.4338 13.5661 42 30.2402 42C33.1103 42.0051 35.8842 40.9653 38.0437 39.0748C40.2032 37.1843 41.6007 34.5723 41.9751 31.7267C42.0631 31.0073 41.9162 30.2788 41.5563 29.6498C41.1964 29.0208 40.6428 28.525 39.978 28.2364ZM30.2402 38.6399C23.1136 38.6322 16.281 35.7976 11.2417 30.7583C6.20234 25.719 3.36783 18.8864 3.36004 11.7597C3.35214 9.709 4.09096 7.72554 5.4385 6.17974C6.78605 4.63394 8.6502 3.63149 10.6828 3.35961C10.682 3.36799 10.682 3.37643 10.6828 3.38481L15.0928 13.2549L10.7521 18.4504C10.708 18.501 10.668 18.5551 10.6324 18.6121C10.3164 19.097 10.131 19.6553 10.0942 20.233C10.0574 20.8106 10.1705 21.388 10.4224 21.9091C12.325 25.8004 16.2457 29.6918 20.1791 31.5923C20.704 31.8419 21.2847 31.951 21.8644 31.909C22.4441 31.8671 23.0031 31.6755 23.4866 31.3529C23.5405 31.3166 23.5924 31.2773 23.642 31.2353L28.7471 26.8798L38.6172 31.3004C38.6172 31.3004 38.634 31.3004 38.6403 31.3004C38.3717 33.3358 37.3708 35.2038 35.8247 36.5546C34.2786 37.9055 32.2933 38.6469 30.2402 38.6399Z" fill="black"/>
</svg>
