<svg width="184" height="184" viewBox="0 0 184 184" fill="none" xmlns="http://www.w3.org/2000/svg">
<path d="M92 0C73.8041 0 56.0169 5.3957 40.8876 15.5048C25.7582 25.6139 13.9664 39.9823 7.00312 56.7931C0.0398622 73.6039 -1.78204 92.102 1.7678 109.948C5.31764 127.795 14.0798 144.187 26.9462 157.054C39.8126 169.92 56.2055 178.682 74.0517 182.232C91.898 185.782 110.396 183.96 127.207 176.997C144.018 170.034 158.386 158.242 168.495 143.112C178.604 127.983 184 110.196 184 92C183.974 67.608 174.273 44.2224 157.025 26.9746C139.778 9.72686 116.392 0.0257584 92 0ZM92 169.846C76.6035 169.846 61.5528 165.281 48.751 156.727C35.9493 148.173 25.9716 136.015 20.0796 121.79C14.1876 107.566 12.646 91.9136 15.6497 76.813C18.6534 61.7123 26.0675 47.8414 36.9545 36.9544C47.8415 26.0675 61.7123 18.6533 76.813 15.6496C91.9137 12.6459 107.566 14.1875 121.79 20.0795C136.015 25.9715 148.173 35.9492 156.727 48.751C165.281 61.5527 169.846 76.6035 169.846 92C169.823 112.639 161.614 132.426 147.02 147.02C132.426 161.614 112.639 169.823 92 169.846ZM124.235 86.1084L81.7739 57.8008C80.7078 57.0895 79.4687 56.6811 78.1886 56.6191C76.9086 56.557 75.6358 56.8438 74.506 57.4486C73.3762 58.0535 72.4318 58.9538 71.7737 60.0534C71.1156 61.1531 70.7684 62.4108 70.7693 63.6923V120.308C70.7684 121.589 71.1156 122.847 71.7737 123.947C72.4318 125.046 73.3762 125.946 74.506 126.551C75.6358 127.156 76.9086 127.443 78.1886 127.381C79.4687 127.319 80.7078 126.91 81.7739 126.199L124.235 97.8915C125.206 97.2455 126.002 96.3697 126.553 95.3418C127.103 94.314 127.392 93.166 127.392 92C127.392 90.8339 127.103 89.686 126.553 88.6581C126.002 87.6303 125.206 86.7544 124.235 86.1084ZM84.9231 107.083V76.9615L107.552 92L84.9231 107.083Z" fill="black"/>
</svg>
